PathFileType	4	(X/Y/Z)	Walk1.trc
DataRate	CameraRate	NumFrames	NumMarkers	Units	OrigDataRate	OrigDataStartFrame	OrigNumFrames
200.000000	200.000000	8	59	mm	200.000000	488	584
Frame#	Times		LFHD		RFHD		LBHD		RBHD		C7		T10		CLAV		STRN		RBack		LASI		RACR1		RUA1		RElbow		RFA1		RWRR		RWRU		RCAR		LACR1		LUA1		LElbow		LFA1		LWRU		LCAR		RTH1		RTH3		RTB1		RTB3		RTB4		LTH3		LTH2		LTH4		LLFC		LTB2		LTB4		LToe		RTH2		LMMAL		RTH4		LTH1		LTB1		RTB2		LCAL		LMT1		LTB3		LMT5		RElbowM		LWRR		LLMAL		RLFC		RPSI		LPSI		LElbowM		RASI		RMT1		RToe		RCAL		RMMAL		RLMAL		RMT5
			X1	Y1	Z1	X2	Y2	Z2	X3	Y3	Z3	X4	Y4	Z4	X5	Y5	Z5	X6	Y6	Z6	X7	Y7	Z7	X8	Y8	Z8	X9	Y9	Z9	X10	Y10	Z10	X11	Y11	Z11	X12	Y12	Z12	X13	Y13	Z13	X14	Y14	Z14	X15	Y15	Z15	X16	Y16	Z16	X17	Y17	Z17	X18	Y18	Z18	X19	Y19	Z19	X20	Y20	Z20	X21	Y21	Z21	X22	Y22	Z22	X23	Y23	Z23	X24	Y24	Z24	X25	Y25	Z25	X26	Y26	Z26	X27	Y27	Z27	X28	Y28	Z28	X29	Y29	Z29	X30	Y30	Z30	X31	Y31	Z31	X32	Y32	Z32	X33	Y33	Z33	X34	Y34	Z34	X35	Y35	Z35	X36	Y36	Z36	X37	Y37	Z37	X38	Y38	Z38	X39	Y39	Z39	X40	Y40	Z40	X41	Y41	Z41	X42	Y42	Z42	X43	Y43	Z43	X44	Y44	Z44	X45	Y45	Z45	X46	Y46	Z46	X47	Y47	Z47	X48	Y48	Z48	X49	Y49	Z49	X50	Y50	Z50	X51	Y51	Z51	X52	Y52	Z52	X53	Y53	Z53	X54	Y54	Z54	X55	Y55	Z55	X56	Y56	Z56	X57	Y57	Z57	X58	Y58	Z58	X59	Y59	Z59

488	2.44	431.98	1426.8	-1.595	423.3	1414.9	94.099	302.86	1353.4	-32.257	291.89	1345.2	100.44	259.34	1265.9	39.332	167.1	1069.6	53.689	397.68	1177.8	28.171	445.88	1069.9	26.045	216.73	1144.2	160.97	355.64	817.63	-134.03	340.25	1207.3	212.68	359.23	1066.7	293.52	367.49	940.84	330.06	457.9	844.79	318.92	499.96	761.13	269.14	473.87	745.1	334.46	535.58	710.14	315.75	303.77	1210.6	-151.99	291.3	1052.4	-229.56	241.31	943.01	-250.93	292.21	847.92	-290.51	278.72	739.79	-319.59	318.14	690.95	-325.48	296.03	630.72	233.41	259.35	470.06	178.16	239.49	278.85	99.106	178.39	119.86	72.688	206.17	198.91	86.221	370.29	487.49	-139.96	395.51	591.49	-140.13	348.08	568.17	-167.34	416.35	407.67	-105.73	457.8	235.01	-100.01	484.56	240.48	-44.322	643.44	110.26	-63.15	331.67	545.05	188.25	503.06	95.642	1.6956	275.72	550.48	209.51	326.2	649.26	-187.78	469.09	326.72	-46.854	175.64	203.69	139.39	448.96	42.922	-21.225	609.38	93.145	-29.946	506.15	160.19	-44.674	567.99	56.082	-100.46	316.63	898.63	263.62	324.14	736.6	-276.52	476.24	71.5	-72.657	217.81	388.36	155.87	121.27	847.87	92.858	109.54	842.29	-11.54	219.19	915.88	-181.47	386.13	816.87	185.28	219.05	29.497	30.208	279.43	28.784	62.63	55.773	51.704	65.514	127.09	78.679	24.866	119.2	67.635	107.89	198.86	23.345	124.54
489	2.445	437.51	1425.9	-2.0478	428.79	1414.1	93.657	308.36	1352.6	-32.679	297.36	1344.5	100.02	264.77	1265.1	38.95	172.52	1068.7	53.177	403.17	1177	27.993	451.54	1069.2	26.377	222.1	1143.3	160.53	361.61	816.32	-133.85	345.55	1206.5	212.4	364.86	1066	293.23	373.42	940.19	329.85	464.02	844.33	318.46	506.14	760.79	268.57	480.23	744.69	333.94	541.96	709.85	315.07	309.34	1209.8	-152.32	296.95	1051.6	-229.87	246.67	942.37	-251.31	296.81	847.24	-291.44	282.51	739.27	-320.88	321.59	690.21	-327.21	300.63	630.37	233.38	262.75	469.96	178.12	241.57	278.62	99.236	179.19	120.14	72.767	207.59	198.97	86.301	374.44	485.64	-139.73	400.26	589.49	-139.96	352.66	566.44	-167.21	421.06	406.51	-105.14	466.65	235.16	-99.573	492.91	240.99	-43.689	655.34	113.75	-62.153	335.66	544.4	188.29	514.44	96.314	1.8046	279.7	550.23	209.46	331.26	647.67	-187.63	475.47	326.95	-45.896	177.03	204	139.42	461.55	42.399	-21.572	621.21	96.085	-29.205	516.33	161.11	-44.285	581.12	58.094	-99.985	322.47	897.85	263.57	328.18	735.62	-278.12	488.63	71.821	-72.791	220.63	388.45	155.81	126.66	847.27	92.165	115.31	841.43	-12.249	224.68	915.08	-181.84	391.59	816.08	185.4	219.17	29.548	30.217	279.49	28.72	62.695	56.031	52.946	65.422	127.63	79.392	24.829	119.55	68.351	107.83	198.81	23.358	124.38
490	2.45	443.04	1425	-2.5184	434.29	1413.3	93.197	313.86	1351.8	-33.123	302.83	1343.7	99.572	270.18	1264.2	38.535	177.96	1067.8	52.63	408.67	1176.2	27.784	457.21	1068.4	26.678	227.46	1142.4	160.06	367.61	814.97	-133.68	350.86	1205.7	212.09	370.5	1065.2	292.9	379.33	939.52	329.6	470.09	843.83	317.98	512.27	760.4	268	486.53	744.23	333.43	548.28	709.52	314.42	314.91	1208.9	-152.67	302.6	1050.7	-230.21	252.08	941.69	-251.71	301.49	846.53	-292.37	286.41	738.72	-322.14	325.16	689.46	-328.89	305.29	630.02	233.36	266.24	469.85	178.11	243.71	278.39	99.366	180.01	120.45	72.866	209.06	199.05	86.395	378.7	483.84	-139.51	405.06	587.55	-139.81	357.29	564.74	-167.1	425.91	405.38	-104.55	475.17	235.24	-99.067	500.94	241.38	-42.988	666.51	116.81	-60.993	339.72	543.74	188.35	525.1	96.915	2.0623	283.75	549.96	209.42	336.29	646.09	-187.49	481.77	327.06	-44.921	178.48	204.33	139.47	473.32	41.968	-21.753	632.27	98.682	-28.307	525.98	161.9	-43.779	593.41	59.862	-99.326	328.28	897.05	263.49	332.32	734.62	-279.68	500.26	72.129	-72.761	223.55	388.53	155.77	132.08	846.65	91.455	121.12	840.55	-12.962	230.21	914.24	-182.25	397.07	815.34	185.58	219.28	29.605	30.233	279.55	28.663	62.75	56.302	54.241	65.368	128.19	80.138	24.817	119.93	69.102	107.8	198.76	23.372	124.23
491	2.455	448.58	1424.1	-3.0053	439.78	1412.4	92.719	319.36	1350.9	-33.589	308.29	1342.9	99.1	275.6	1263.4	38.087	183.42	1066.9	52.05	414.18	1175.4	27.542	462.89	1067.6	26.943	232.83	1141.5	159.56	373.64	813.61	-133.53	356.15	1204.9	211.75	376.14	1064.4	292.52	385.21	938.84	329.32	476.12	843.3	317.49	518.35	759.96	267.45	492.77	743.74	332.94	554.54	709.13	313.79	320.5	1208	-153.06	308.23	1049.8	-230.6	257.53	940.97	-252.14	306.26	845.8	-293.29	290.43	738.15	-323.37	328.87	688.68	-330.51	310.03	629.66	233.34	269.82	469.74	178.13	245.92	278.14	99.496	180.87	120.77	72.984	210.58	199.13	86.504	383.11	482.11	-139.29	409.93	585.7	-139.7	362.01	563.09	-167.01	430.92	404.29	-103.96	483.35	235.24	-98.485	508.66	241.65	-42.223	676.94	119.36	-59.675	343.87	543.08	188.44	535.03	97.4	2.4746	287.88	549.69	209.38	341.32	644.54	-187.37	488	327.05	-43.937	180	204.66	139.54	484.24	41.589	-21.755	642.53	100.87	-27.252	535.08	162.52	-43.154	604.83	61.315	-98.476	334.05	896.24	263.38	336.56	733.62	-281.21	511.08	72.376	-72.554	226.57	388.61	155.75	137.52	846.02	90.73	126.96	839.64	-13.68	235.78	913.38	-182.68	402.54	814.65	185.81	219.38	29.667	30.254	279.61	28.613	62.794	56.587	55.592	65.357	128.76	80.918	24.833	120.34	69.889	107.81	198.74	23.386	124.1
492	2.46	454.12	1423.2	-3.507	445.28	1411.6	92.225	324.87	1350	-34.078	313.76	1342.1	98.602	281.01	1262.5	37.605	188.9	1066	51.439	419.69	1174.6	27.262	468.58	1066.9	27.167	238.2	1140.6	159.01	379.69	812.23	-133.39	361.45	1204.1	211.37	381.79	1063.6	292.11	391.08	938.15	328.99	482.11	842.73	316.97	524.38	759.48	266.91	498.94	743.21	332.45	560.72	708.7	313.2	326.09	1207.1	-153.48	313.86	1049	-231.02	263.03	940.21	-252.59	311.12	845.03	-294.21	294.57	737.53	-324.58	332.7	687.88	-332.09	314.83	629.29	233.33	273.5	469.62	178.18	248.2	277.87	99.625	181.75	121.11	73.121	212.16	199.21	86.63	387.7	480.47	-139.06	414.89	583.96	-139.61	366.83	561.5	-166.92	436.09	403.24	-103.36	491.17	235.12	-97.825	516.06	241.76	-41.393	686.63	121.35	-58.203	348.1	542.41	188.55	544.21	97.73	3.0437	292.09	549.4	209.36	346.35	643.03	-187.26	494.17	326.91	-42.951	181.59	205.01	139.63	494.29	41.226	-21.568	652.01	102.61	-26.044	543.64	162.95	-42.411	615.37	62.391	-97.434	339.78	895.42	263.24	340.91	732.59	-282.69	521.09	72.52	-72.165	229.7	388.68	155.76	142.98	845.37	89.992	132.83	838.72	-14.398	241.39	912.49	-183.14	408	814.03	186.1	219.48	29.734	30.282	279.66	28.569	62.825	56.887	57.002	65.393	129.34	81.734	24.879	120.77	70.71	107.85	198.74	23.399	123.98
493	2.465	459.66	1422.3	-4.0223	450.78	1410.7	91.716	330.38	1349.1	-34.59	319.23	1341.3	98.08	286.43	1261.6	37.089	194.4	1065	50.799	425.21	1173.8	26.944	474.27	1066.1	27.344	243.58	1139.7	158.43	385.78	810.86	-133.28	366.75	1203.2	210.96	387.45	1062.8	291.66	396.91	937.44	328.63	488.04	842.14	316.44	530.35	758.95	266.38	505.04	742.65	331.97	566.83	708.23	312.63	331.68	1206.2	-153.94	319.48	1048.1	-231.49	268.57	939.4	-253.07	316.06	844.23	-295.12	298.83	736.89	-325.77	336.67	687.05	-333.61	319.71	628.91	233.33	277.28	469.48	178.26	250.56	277.6	99.754	182.66	121.47	73.279	213.79	199.3	86.772	392.5	478.94	-138.82	419.96	582.35	-139.55	371.79	559.99	-166.84	441.42	402.24	-102.76	498.64	234.87	-97.087	523.14	241.69	-40.502	695.58	122.73	-56.585	352.41	541.74	188.7	552.66	97.871	3.7685	296.39	549.1	209.35	351.43	641.58	-187.16	500.27	326.62	-41.966	183.25	205.35	139.75	503.45	40.851	-21.194	660.69	103.83	-24.688	551.64	163.16	-41.551	625	63.044	-96.205	345.48	894.59	263.07	345.37	731.56	-284.14	530.25	72.524	-71.593	232.94	388.73	155.8	148.47	844.72	89.245	138.74	837.78	-15.114	247.03	911.57	-183.63	413.45	813.46	186.45	219.56	29.806	30.317	279.7	28.532	62.842	57.206	58.474	65.478	129.93	82.588	24.96	121.23	71.566	107.94	198.76	23.411	123.88
494	2.47	465.2	1421.4	-4.5499	456.29	1409.8	91.192	335.9	1348.3	-35.125	324.7	1340.5	97.533	291.84	1260.7	36.537	199.94	1064.1	50.131	430.75	1172.9	26.586	479.98	1065.4	27.469	248.97	1138.7	157.82	391.89	809.49	-133.2	372.05	1202.4	210.51	393.11	1062	291.16	402.71	936.72	328.22	493.91	841.51	315.9	536.26	758.37	265.87	511.06	742.06	331.5	572.85	707.72	312.09	337.28	1205.3	-154.44	325.09	1047.2	-231.99	274.15	938.57	-253.56	321.09	843.41	-296.02	303.21	736.21	-326.93	340.77	686.2	-335.07	324.66	628.52	233.35	281.17	469.32	178.37	252.99	277.3	99.885	183.61	121.85	73.456	215.48	199.39	86.934	397.53	477.53	-138.54	425.18	580.89	-139.5	376.9	558.57	-166.74	446.91	401.28	-102.16	505.75	234.46	-96.271	529.92	241.44	-39.553	703.81	123.44	-54.827	356.81	541.07	188.86	560.38	97.798	4.6442	300.79	548.78	209.37	356.56	640.19	-187.07	506.33	326.18	-40.988	185	205.7	139.88	511.72	40.443	-20.64	668.59	104.51	-23.193	559.1	163.13	-40.577	633.74	63.237	-94.8	351.13	893.76	262.87	349.94	730.51	-285.54	538.59	72.365	-70.841	236.31	388.76	155.86	154	844.05	88.491	144.69	836.84	-15.823	252.72	910.62	-184.14	418.88	812.95	186.84	219.64	29.883	30.359	279.75	28.5	62.845	57.546	60.014	65.617	130.53	83.483	25.077	121.73	72.46	108.06	198.8	23.421	123.8
495	2.475	470.75	1420.5	-5.0888	461.79	1409	90.655	341.42	1347.4	-35.683	330.17	1339.6	96.962	297.26	1259.8	35.95	205.5	1063.1	49.438	436.29	1172.1	26.185	485.69	1064.6	27.537	254.37	1137.7	157.16	398.03	808.13	-133.16	377.36	1201.5	210.03	398.78	1061.1	290.63	408.48	935.99	327.77	499.73	840.86	315.35	542.11	757.76	265.37	516.99	741.44	331.04	578.8	707.17	311.59	342.88	1204.3	-154.97	330.69	1046.2	-232.54	279.76	937.7	-254.08	326.21	842.55	-296.92	307.71	735.5	-328.06	345.01	685.32	-336.48	329.68	628.11	233.38	285.17	469.14	178.52	255.52	276.98	100.02	184.59	122.25	73.654	217.24	199.48	87.115	402.81	476.26	-138.24	430.55	579.59	-139.46	382.19	557.26	-166.63	452.55	400.36	-101.55	512.51	233.9	-95.382	536.41	241	-38.549	711.35	123.46	-52.938	361.3	540.4	189.06	567.38	97.492	5.6621	305.29	548.44	209.41	361.78	638.87	-187	512.35	325.6	-40.018	186.82	206.06	140.05	519.12	39.99	-19.921	675.74	104.61	-21.567	566.04	162.85	-39.496	641.6	62.955	-93.237	356.75	892.93	262.62	354.63	729.45	-286.9	546.11	72.025	-69.921	239.81	388.77	155.96	159.56	843.37	87.736	150.67	835.9	-16.522	258.43	909.66	-184.68	424.27	812.51	187.28	219.71	29.967	30.409	279.79	28.474	62.831	57.911	61.627	65.809	131.14	84.423	25.232	122.25	73.392	108.23	198.86	23.427	123.73
